# 3ds Max Wavefront OBJ Exporter v0.97b - (c)2007 guruware
# File Created: 08.09.2017 23:41:28

#
# object acorn
#

v  0.0000 5.9787 16.8249
v  0.0000 1.7664 16.6845
v  11.7978 1.7664 11.7977
v  11.8970 5.9787 11.8970
v  16.6845 1.7664 -0.0000
v  16.8249 5.9787 -0.0000
v  11.7977 1.7664 -11.7978
v  11.8970 5.9787 -11.8970
v  0.0000 1.7664 -16.6845
v  0.0000 5.9787 -16.8249
v  0.0000 -7.5849 15.0127
v  10.6156 -7.5849 10.6156
v  15.0127 -7.5849 -0.0000
v  10.6156 -7.5849 -10.6156
v  0.0000 -7.5849 -15.0127
v  0.0000 -15.2145 10.5912
v  7.4891 -15.2145 7.4891
v  10.5912 -15.2145 -0.0000
v  7.4891 -15.2145 -7.4891
v  0.0000 -15.2145 -10.5912
v  0.0000 -18.9294 3.7653
v  2.6625 -18.9294 2.6625
v  3.7653 -18.9294 -0.0000
v  2.6625 -18.9294 -2.6625
v  0.0000 -18.9294 -3.7653
v  0.0000 -21.0645 -0.0000
v  0.6242 -20.6010 0.6242
v  0.0000 -20.6010 0.8828
v  0.8828 -20.6010 -0.0000
v  0.6242 -20.6010 -0.6242
v  0.0000 -20.6010 -0.8828
v  1.3312 -19.1149 1.3312
v  0.0000 -19.1149 1.8826
v  1.8826 -19.1149 -0.0000
v  1.3312 -19.1149 -1.3312
v  0.0000 -19.1149 -1.8826
v  1.1541 -19.8579 -1.1541
v  0.0000 -19.8579 -1.6322
v  1.6322 -19.8579 -0.0000
v  1.1541 -19.8579 1.1541
v  0.0000 -19.8579 1.6322
v  0.0000 19.6393 0.0465
v  0.0000 16.1958 6.6548
v  4.8306 16.1958 4.7193
v  6.7661 16.1958 0.0465
v  4.8306 16.1958 -4.6262
v  0.0000 16.1958 -6.5617
v  0.0000 14.4078 13.2630
v  0.0000 10.0913 17.1172
v  12.2287 10.0913 12.1173
v  9.5034 14.4078 9.3920
v  17.2286 10.0913 0.0465
v  13.3744 14.4078 0.0465
v  12.2287 10.0913 -12.0243
v  9.5034 14.4078 -9.2989
v  0.0000 10.0913 -17.0241
v  0.0000 14.4078 -13.1699
v  0.0000 5.4893 18.3509
v  13.1011 5.4893 12.9897
v  18.4623 5.4893 0.0465
v  13.1011 5.4893 -12.8966
v  0.0000 5.4893 -18.2579
v  -11.8970 5.9787 11.8970
v  -11.7978 1.7664 11.7977
v  -16.8249 5.9787 -0.0000
v  -16.6845 1.7664 -0.0000
v  -11.8970 5.9787 -11.8970
v  -11.7977 1.7664 -11.7978
v  -10.6156 -7.5849 10.6156
v  -15.0127 -7.5849 -0.0000
v  -10.6156 -7.5849 -10.6156
v  -7.4891 -15.2145 7.4891
v  -10.5912 -15.2145 -0.0000
v  -7.4891 -15.2145 -7.4891
v  -2.6625 -18.9294 2.6625
v  -3.7653 -18.9294 -0.0000
v  -2.6625 -18.9294 -2.6625
v  -0.6242 -20.6010 0.6242
v  -0.8828 -20.6010 -0.0000
v  -0.6242 -20.6010 -0.6242
v  -1.3312 -19.1149 1.3312
v  -1.8826 -19.1149 -0.0000
v  -1.3312 -19.1149 -1.3312
v  -1.1541 -19.8579 -1.1541
v  -1.6322 -19.8579 -0.0000
v  -1.1541 -19.8579 1.1541
v  -4.8306 16.1958 4.7193
v  -6.7661 16.1958 0.0465
v  -4.8306 16.1958 -4.6262
v  -9.5034 14.4078 9.3920
v  -12.2287 10.0913 12.1173
v  -13.3744 14.4078 0.0465
v  -17.2286 10.0913 0.0465
v  -9.5034 14.4078 -9.2989
v  -12.2287 10.0913 -12.0243
v  -13.1011 5.4893 12.9897
v  -18.4623 5.4893 0.0465
v  -13.1011 5.4893 -12.8966
# 98 vertices

vn 0.0000 -0.1031 0.9947
vn 0.7033 -0.1031 0.7033
vn 0.3010 -0.9070 0.2944
vn -0.0000 -0.9116 0.4112
vn 0.7033 -0.1031 0.7033
vn 0.9947 -0.1031 -0.0000
vn 0.4224 -0.9064 0.0027
vn 0.3010 -0.9070 0.2944
vn 0.9947 -0.1031 -0.0000
vn 0.7033 -0.1031 -0.7033
vn 0.2993 -0.9102 -0.2863
vn 0.4224 -0.9064 0.0027
vn 0.7033 -0.1031 -0.7033
vn 0.0000 -0.1031 -0.9947
vn 0.0000 -0.9163 -0.4005
vn 0.2993 -0.9102 -0.2863
vn 0.0000 -0.3310 0.9436
vn 0.6673 -0.3310 0.6673
vn 0.7033 -0.1031 0.7033
vn 0.0000 -0.1031 0.9947
vn 0.6673 -0.3310 0.6673
vn 0.9436 -0.3310 -0.0000
vn 0.9947 -0.1031 -0.0000
vn 0.7033 -0.1031 0.7033
vn 0.9436 -0.3310 -0.0000
vn 0.6673 -0.3310 -0.6673
vn 0.7033 -0.1031 -0.7033
vn 0.9947 -0.1031 -0.0000
vn 0.6673 -0.3310 -0.6673
vn -0.0000 -0.3310 -0.9436
vn 0.0000 -0.1031 -0.9947
vn 0.7033 -0.1031 -0.7033
vn 0.0000 -0.6847 0.7288
vn 0.5154 -0.6847 0.5154
vn 0.6673 -0.3310 0.6673
vn 0.0000 -0.3310 0.9436
vn 0.5154 -0.6847 0.5154
vn 0.7288 -0.6847 -0.0000
vn 0.9436 -0.3310 -0.0000
vn 0.6673 -0.3310 0.6673
vn 0.7288 -0.6847 -0.0000
vn 0.5154 -0.6847 -0.5154
vn 0.6673 -0.3310 -0.6673
vn 0.9436 -0.3310 -0.0000
vn 0.5154 -0.6847 -0.5154
vn -0.0000 -0.6847 -0.7288
vn -0.0000 -0.3310 -0.9436
vn 0.6673 -0.3310 -0.6673
vn 0.0000 -0.9412 0.3378
vn 0.2389 -0.9412 0.2389
vn 0.5154 -0.6847 0.5154
vn 0.0000 -0.6847 0.7288
vn 0.2389 -0.9412 0.2389
vn 0.3378 -0.9412 -0.0000
vn 0.7288 -0.6847 -0.0000
vn 0.5154 -0.6847 0.5154
vn 0.3378 -0.9412 -0.0000
vn 0.2389 -0.9412 -0.2389
vn 0.5154 -0.6847 -0.5154
vn 0.7288 -0.6847 -0.0000
vn 0.2389 -0.9412 -0.2389
vn -0.0000 -0.9412 -0.3378
vn -0.0000 -0.6847 -0.7288
vn 0.5154 -0.6847 -0.5154
vn -0.0000 -1.0000 0.0000
vn 0.4341 -0.7894 0.4341
vn 0.0000 -0.7894 0.6139
vn -0.0000 -1.0000 0.0000
vn 0.6139 -0.7894 -0.0000
vn 0.4341 -0.7894 0.4341
vn -0.0000 -1.0000 0.0000
vn 0.4341 -0.7894 -0.4341
vn 0.6139 -0.7894 -0.0000
vn -0.0000 -1.0000 0.0000
vn -0.0000 -0.7894 -0.6139
vn 0.4341 -0.7894 -0.4341
vn 0.2389 -0.9412 0.2389
vn 0.0000 -0.9412 0.3378
vn -0.0000 -0.8510 0.5252
vn 0.3714 -0.8510 0.3714
vn 0.3378 -0.9412 -0.0000
vn 0.2389 -0.9412 0.2389
vn 0.3714 -0.8510 0.3714
vn 0.5252 -0.8510 -0.0000
vn 0.2389 -0.9412 -0.2389
vn 0.3378 -0.9412 -0.0000
vn 0.5252 -0.8510 -0.0000
vn 0.3714 -0.8510 -0.3714
vn -0.0000 -0.9412 -0.3378
vn 0.2389 -0.9412 -0.2389
vn 0.3714 -0.8510 -0.3714
vn 0.0000 -0.8510 -0.5252
vn 0.3714 -0.8510 -0.3714
vn 0.6103 -0.5051 -0.6103
vn 0.0000 -0.5051 -0.8631
vn 0.0000 -0.8510 -0.5252
vn 0.5252 -0.8510 -0.0000
vn 0.8631 -0.5051 -0.0000
vn 0.6103 -0.5051 -0.6103
vn 0.3714 -0.8510 -0.3714
vn 0.3714 -0.8510 0.3714
vn 0.6103 -0.5051 0.6103
vn 0.8631 -0.5051 -0.0000
vn 0.5252 -0.8510 -0.0000
vn -0.0000 -0.8510 0.5252
vn 0.0000 -0.5051 0.8631
vn 0.6103 -0.5051 0.6103
vn 0.3714 -0.8510 0.3714
vn 0.4341 -0.7894 -0.4341
vn -0.0000 -0.7894 -0.6139
vn 0.0000 -0.5051 -0.8631
vn 0.6103 -0.5051 -0.6103
vn 0.6139 -0.7894 -0.0000
vn 0.4341 -0.7894 -0.4341
vn 0.6103 -0.5051 -0.6103
vn 0.8631 -0.5051 -0.0000
vn 0.4341 -0.7894 0.4341
vn 0.6139 -0.7894 -0.0000
vn 0.8631 -0.5051 -0.0000
vn 0.6103 -0.5051 0.6103
vn 0.0000 -0.7894 0.6139
vn 0.4341 -0.7894 0.4341
vn 0.6103 -0.5051 0.6103
vn 0.0000 -0.5051 0.8631
vn 0.0000 1.0000 0.0000
vn -0.0000 0.9402 0.3407
vn 0.2373 0.9414 0.2396
vn 0.0000 1.0000 0.0000
vn 0.2373 0.9414 0.2396
vn 0.3365 0.9417 0.0000
vn 0.0000 1.0000 0.0000
vn 0.3365 0.9417 0.0000
vn 0.2373 0.9414 -0.2396
vn 0.0000 1.0000 0.0000
vn 0.2373 0.9414 -0.2396
vn 0.0000 0.9402 -0.3407
vn 0.0000 0.4534 0.8913
vn 0.6289 0.4530 0.6318
vn 0.4039 0.8195 0.4066
vn 0.0000 0.8201 0.5721
vn 0.6289 0.4530 0.6318
vn 0.8914 0.4532 0.0000
vn 0.5728 0.8197 0.0000
vn 0.4039 0.8195 0.4066
vn 0.8914 0.4532 0.0000
vn 0.6289 0.4530 -0.6318
vn 0.4039 0.8195 -0.4066
vn 0.5728 0.8197 0.0000
vn 0.6289 0.4530 -0.6318
vn 0.0000 0.4534 -0.8913
vn 0.0000 0.8201 -0.5721
vn 0.4039 0.8195 -0.4066
vn 0.0000 -0.6316 0.7753
vn 0.5493 -0.6249 0.5549
vn 0.6289 0.4530 0.6318
vn 0.0000 0.4534 0.8913
vn 0.5493 -0.6249 0.5549
vn 0.7810 -0.6246 -0.0013
vn 0.8914 0.4532 0.0000
vn 0.6289 0.4530 0.6318
vn 0.7810 -0.6246 -0.0013
vn 0.5456 -0.6284 -0.5545
vn 0.6289 0.4530 -0.6318
vn 0.8914 0.4532 0.0000
vn 0.5456 -0.6284 -0.5545
vn -0.0000 -0.6375 -0.7705
vn 0.0000 0.4534 -0.8913
vn 0.6289 0.4530 -0.6318
vn 0.0000 0.8201 0.5721
vn 0.4039 0.8195 0.4066
vn 0.2373 0.9414 0.2396
vn -0.0000 0.9402 0.3407
vn 0.4039 0.8195 0.4066
vn 0.5728 0.8197 0.0000
vn 0.3365 0.9417 0.0000
vn 0.2373 0.9414 0.2396
vn 0.5728 0.8197 0.0000
vn 0.4039 0.8195 -0.4066
vn 0.2373 0.9414 -0.2396
vn 0.3365 0.9417 0.0000
vn 0.2373 0.9414 -0.2396
vn 0.4039 0.8195 -0.4066
vn 0.0000 0.8201 -0.5721
vn 0.0000 0.9402 -0.3407
vn 0.3010 -0.9070 0.2944
vn 0.5493 -0.6249 0.5549
vn 0.0000 -0.6316 0.7753
vn -0.0000 -0.9116 0.4112
vn 0.4224 -0.9064 0.0027
vn 0.7810 -0.6246 -0.0013
vn 0.5493 -0.6249 0.5549
vn 0.3010 -0.9070 0.2944
vn 0.4224 -0.9064 0.0027
vn 0.2993 -0.9102 -0.2863
vn 0.5456 -0.6284 -0.5545
vn 0.7810 -0.6246 -0.0013
vn 0.2993 -0.9102 -0.2863
vn 0.0000 -0.9163 -0.4005
vn -0.0000 -0.6375 -0.7705
vn 0.5456 -0.6284 -0.5545
vn -0.3010 -0.9070 0.2944
vn -0.7033 -0.1031 0.7033
vn 0.0000 -0.1031 0.9947
vn -0.0000 -0.9116 0.4112
vn -0.4224 -0.9064 0.0027
vn -0.9947 -0.1031 -0.0000
vn -0.7033 -0.1031 0.7033
vn -0.3010 -0.9070 0.2944
vn -0.2993 -0.9102 -0.2863
vn -0.7033 -0.1031 -0.7033
vn -0.9947 -0.1031 -0.0000
vn -0.4224 -0.9064 0.0027
vn 0.0000 -0.9163 -0.4005
vn 0.0000 -0.1031 -0.9947
vn -0.7033 -0.1031 -0.7033
vn -0.2993 -0.9102 -0.2863
vn -0.7033 -0.1031 0.7033
vn -0.6673 -0.3310 0.6673
vn 0.0000 -0.3310 0.9436
vn 0.0000 -0.1031 0.9947
vn -0.9947 -0.1031 -0.0000
vn -0.9436 -0.3310 -0.0000
vn -0.6673 -0.3310 0.6673
vn -0.7033 -0.1031 0.7033
vn -0.7033 -0.1031 -0.7033
vn -0.6673 -0.3310 -0.6673
vn -0.9436 -0.3310 -0.0000
vn -0.9947 -0.1031 -0.0000
vn 0.0000 -0.1031 -0.9947
vn -0.0000 -0.3310 -0.9436
vn -0.6673 -0.3310 -0.6673
vn -0.7033 -0.1031 -0.7033
vn -0.6673 -0.3310 0.6673
vn -0.5154 -0.6847 0.5154
vn 0.0000 -0.6847 0.7288
vn 0.0000 -0.3310 0.9436
vn -0.9436 -0.3310 -0.0000
vn -0.7288 -0.6847 -0.0000
vn -0.5154 -0.6847 0.5154
vn -0.6673 -0.3310 0.6673
vn -0.6673 -0.3310 -0.6673
vn -0.5154 -0.6847 -0.5154
vn -0.7288 -0.6847 -0.0000
vn -0.9436 -0.3310 -0.0000
vn -0.0000 -0.3310 -0.9436
vn -0.0000 -0.6847 -0.7288
vn -0.5154 -0.6847 -0.5154
vn -0.6673 -0.3310 -0.6673
vn -0.5154 -0.6847 0.5154
vn -0.2389 -0.9412 0.2389
vn 0.0000 -0.9412 0.3378
vn 0.0000 -0.6847 0.7288
vn -0.7288 -0.6847 -0.0000
vn -0.3378 -0.9412 -0.0000
vn -0.2389 -0.9412 0.2389
vn -0.5154 -0.6847 0.5154
vn -0.5154 -0.6847 -0.5154
vn -0.2389 -0.9412 -0.2389
vn -0.3378 -0.9412 -0.0000
vn -0.7288 -0.6847 -0.0000
vn -0.0000 -0.6847 -0.7288
vn -0.0000 -0.9412 -0.3378
vn -0.2389 -0.9412 -0.2389
vn -0.5154 -0.6847 -0.5154
vn -0.0000 -1.0000 0.0000
vn 0.0000 -0.7894 0.6139
vn -0.4341 -0.7894 0.4341
vn -0.0000 -1.0000 0.0000
vn -0.4341 -0.7894 0.4341
vn -0.6139 -0.7894 -0.0000
vn -0.0000 -1.0000 0.0000
vn -0.6139 -0.7894 -0.0000
vn -0.4341 -0.7894 -0.4341
vn -0.0000 -1.0000 0.0000
vn -0.4341 -0.7894 -0.4341
vn -0.0000 -0.7894 -0.6139
vn -0.0000 -0.8510 0.5252
vn 0.0000 -0.9412 0.3378
vn -0.2389 -0.9412 0.2389
vn -0.3714 -0.8510 0.3714
vn -0.3714 -0.8510 0.3714
vn -0.2389 -0.9412 0.2389
vn -0.3378 -0.9412 -0.0000
vn -0.5252 -0.8510 -0.0000
vn -0.5252 -0.8510 -0.0000
vn -0.3378 -0.9412 -0.0000
vn -0.2389 -0.9412 -0.2389
vn -0.3714 -0.8510 -0.3714
vn -0.3714 -0.8510 -0.3714
vn -0.2389 -0.9412 -0.2389
vn -0.0000 -0.9412 -0.3378
vn 0.0000 -0.8510 -0.5252
vn 0.0000 -0.5051 -0.8631
vn -0.6103 -0.5051 -0.6103
vn -0.3714 -0.8510 -0.3714
vn 0.0000 -0.8510 -0.5252
vn -0.6103 -0.5051 -0.6103
vn -0.8631 -0.5051 -0.0000
vn -0.5252 -0.8510 -0.0000
vn -0.3714 -0.8510 -0.3714
vn -0.8631 -0.5051 -0.0000
vn -0.6103 -0.5051 0.6103
vn -0.3714 -0.8510 0.3714
vn -0.5252 -0.8510 -0.0000
vn -0.6103 -0.5051 0.6103
vn 0.0000 -0.5051 0.8631
vn -0.0000 -0.8510 0.5252
vn -0.3714 -0.8510 0.3714
vn 0.0000 -0.5051 -0.8631
vn -0.0000 -0.7894 -0.6139
vn -0.4341 -0.7894 -0.4341
vn -0.6103 -0.5051 -0.6103
vn -0.6103 -0.5051 -0.6103
vn -0.4341 -0.7894 -0.4341
vn -0.6139 -0.7894 -0.0000
vn -0.8631 -0.5051 -0.0000
vn -0.8631 -0.5051 -0.0000
vn -0.6139 -0.7894 -0.0000
vn -0.4341 -0.7894 0.4341
vn -0.6103 -0.5051 0.6103
vn -0.6103 -0.5051 0.6103
vn -0.4341 -0.7894 0.4341
vn 0.0000 -0.7894 0.6139
vn 0.0000 -0.5051 0.8631
vn 0.0000 1.0000 0.0000
vn -0.2373 0.9414 0.2396
vn -0.0000 0.9402 0.3407
vn 0.0000 1.0000 0.0000
vn -0.3365 0.9417 0.0000
vn -0.2373 0.9414 0.2396
vn 0.0000 1.0000 0.0000
vn -0.2373 0.9414 -0.2396
vn -0.3365 0.9417 0.0000
vn 0.0000 1.0000 0.0000
vn 0.0000 0.9402 -0.3407
vn -0.2373 0.9414 -0.2396
vn -0.4039 0.8195 0.4066
vn -0.6289 0.4530 0.6318
vn 0.0000 0.4534 0.8913
vn 0.0000 0.8201 0.5721
vn -0.5728 0.8197 0.0000
vn -0.8914 0.4532 0.0000
vn -0.6289 0.4530 0.6318
vn -0.4039 0.8195 0.4066
vn -0.4039 0.8195 -0.4066
vn -0.6289 0.4530 -0.6318
vn -0.8914 0.4532 0.0000
vn -0.5728 0.8197 0.0000
vn 0.0000 0.8201 -0.5721
vn 0.0000 0.4534 -0.8913
vn -0.6289 0.4530 -0.6318
vn -0.4039 0.8195 -0.4066
vn -0.6289 0.4530 0.6318
vn -0.5493 -0.6249 0.5549
vn 0.0000 -0.6316 0.7753
vn 0.0000 0.4534 0.8913
vn -0.8914 0.4532 0.0000
vn -0.7810 -0.6246 -0.0013
vn -0.5493 -0.6249 0.5549
vn -0.6289 0.4530 0.6318
vn -0.6289 0.4530 -0.6318
vn -0.5456 -0.6284 -0.5545
vn -0.7810 -0.6246 -0.0013
vn -0.8914 0.4532 0.0000
vn 0.0000 0.4534 -0.8913
vn -0.0000 -0.6375 -0.7705
vn -0.5456 -0.6284 -0.5545
vn -0.6289 0.4530 -0.6318
vn -0.2373 0.9414 0.2396
vn -0.4039 0.8195 0.4066
vn 0.0000 0.8201 0.5721
vn -0.0000 0.9402 0.3407
vn -0.3365 0.9417 0.0000
vn -0.5728 0.8197 0.0000
vn -0.4039 0.8195 0.4066
vn -0.2373 0.9414 0.2396
vn -0.2373 0.9414 -0.2396
vn -0.4039 0.8195 -0.4066
vn -0.5728 0.8197 0.0000
vn -0.3365 0.9417 0.0000
vn -0.2373 0.9414 -0.2396
vn 0.0000 0.9402 -0.3407
vn 0.0000 0.8201 -0.5721
vn -0.4039 0.8195 -0.4066
vn 0.0000 -0.6316 0.7753
vn -0.5493 -0.6249 0.5549
vn -0.3010 -0.9070 0.2944
vn -0.0000 -0.9116 0.4112
vn -0.5493 -0.6249 0.5549
vn -0.7810 -0.6246 -0.0013
vn -0.4224 -0.9064 0.0027
vn -0.3010 -0.9070 0.2944
vn -0.4224 -0.9064 0.0027
vn -0.7810 -0.6246 -0.0013
vn -0.5456 -0.6284 -0.5545
vn -0.2993 -0.9102 -0.2863
vn -0.2993 -0.9102 -0.2863
vn -0.5456 -0.6284 -0.5545
vn -0.0000 -0.6375 -0.7705
vn 0.0000 -0.9163 -0.4005
# 400 vertex normals

vt 0.0020 0.0130 0.0000
vt 0.0165 0.1342 0.0000
vt 0.2543 0.0841 0.0000
vt 0.2497 0.0124 0.0000
vt 0.4973 0.0678 0.0000
vt 0.4974 0.0117 0.0000
vt 0.7403 0.0841 0.0000
vt 0.7450 0.0111 0.0000
vt 0.9782 0.1327 0.0000
vt 0.9927 0.0105 0.0000
vt 0.0964 0.3444 0.0000
vt 0.2899 0.2545 0.0000
vt 0.4973 0.2251 0.0000
vt 0.7048 0.2544 0.0000
vt 0.8986 0.3436 0.0000
vt 0.2368 0.5003 0.0000
vt 0.3520 0.4054 0.0000
vt 0.4974 0.3750 0.0000
vt 0.6430 0.4053 0.0000
vt 0.7584 0.4999 0.0000
vt 0.3972 0.5700 0.0000
vt 0.4360 0.5287 0.0000
vt 0.4976 0.5153 0.0000
vt 0.5592 0.5286 0.0000
vt 0.5981 0.5698 0.0000
vt 0.4977 0.6029 0.0000
vt 0.4852 0.5878 0.0000
vt 0.4775 0.5980 0.0000
vt 0.4977 0.5840 0.0000
vt 0.5101 0.5878 0.0000
vt 0.5179 0.5980 0.0000
vt 0.4628 0.5582 0.0000
vt 0.4419 0.5801 0.0000
vt 0.4976 0.5503 0.0000
vt 0.5325 0.5582 0.0000
vt 0.5534 0.5800 0.0000
vt 0.5220 0.5710 0.0000
vt 0.5381 0.5890 0.0000
vt 0.4976 0.5646 0.0000
vt 0.4733 0.5710 0.0000
vt 0.4572 0.5890 0.0000
vt 0.5000 0.9784 0.0000
vt 0.6494 0.9784 0.0000
vt 0.5991 0.9007 0.0000
vt 0.4990 0.8681 0.0000
vt 0.3993 0.9008 0.0000
vt 0.3498 0.9784 0.0000
vt 0.7885 0.9784 0.0000
vt 0.8954 0.9784 0.0000
vt 0.7375 0.7753 0.0000
vt 0.6809 0.8283 0.0000
vt 0.4981 0.6964 0.0000
vt 0.4985 0.7691 0.0000
vt 0.2588 0.7754 0.0000
vt 0.3163 0.8285 0.0000
vt 0.1012 0.9784 0.0000
vt 0.2098 0.9784 0.0000
vt 0.9607 0.9784 0.0000
vt 0.7779 0.7359 0.0000
vt 0.4980 0.6421 0.0000
vt 0.2177 0.7360 0.0000
vt 0.0336 0.9784 0.0000
vt 0.9822 0.9784 0.0000
vt 0.7880 0.7298 0.0000
vt 0.4973 0.6320 0.0000
vt 0.2071 0.7310 0.0000
vt 0.0106 0.9784 0.0000
# 67 texture coords

o acorn
g acorn
s 1
f 2/2/1 3/3/2 4/4/3 1/1/4 
f 3/3/5 5/5/6 6/6/7 4/4/8 
f 5/5/9 7/7/10 8/8/11 6/6/12 
f 7/7/13 9/9/14 10/10/15 8/8/16 
f 11/11/17 12/12/18 3/3/19 2/2/20 
f 12/12/21 13/13/22 5/5/23 3/3/24 
f 13/13/25 14/14/26 7/7/27 5/5/28 
f 14/14/29 15/15/30 9/9/31 7/7/32 
f 16/16/33 17/17/34 12/12/35 11/11/36 
f 17/17/37 18/18/38 13/13/39 12/12/40 
f 18/18/41 19/19/42 14/14/43 13/13/44 
f 19/19/45 20/20/46 15/15/47 14/14/48 
f 21/21/49 22/22/50 17/17/51 16/16/52 
f 22/22/53 23/23/54 18/18/55 17/17/56 
f 23/23/57 24/24/58 19/19/59 18/18/60 
f 24/24/61 25/25/62 20/20/63 19/19/64 
f 26/26/65 27/27/66 28/28/67 
f 26/26/68 29/29/69 27/27/70 
f 26/26/71 30/30/72 29/29/73 
f 26/26/74 31/31/75 30/30/76 
f 22/22/77 21/21/78 33/33/79 32/32/80 
f 23/23/81 22/22/82 32/32/83 34/34/84 
f 24/24/85 23/23/86 34/34/87 35/35/88 
f 25/25/89 24/24/90 35/35/91 36/36/92 
s off
f 35/35/93 37/37/94 38/38/95 36/36/96 
f 34/34/97 39/39/98 37/37/99 35/35/100 
f 32/32/101 40/40/102 39/39/103 34/34/104 
f 33/33/105 41/41/106 40/40/107 32/32/108 
f 30/30/109 31/31/110 38/38/111 37/37/112 
f 29/29/113 30/30/114 37/37/115 39/39/116 
f 27/27/117 29/29/118 39/39/119 40/40/120 
f 28/28/121 27/27/122 40/40/123 41/41/124 
s 1
f 42/42/125 43/43/126 44/44/127 
f 42/42/128 44/44/129 45/45/130 
f 42/42/131 45/45/132 46/46/133 
f 42/42/134 46/46/135 47/47/136 
f 49/49/137 50/50/138 51/51/139 48/48/140 
f 50/50/141 52/52/142 53/53/143 51/51/144 
f 52/52/145 54/54/146 55/55/147 53/53/148 
f 54/54/149 56/56/150 57/57/151 55/55/152 
f 58/58/153 59/59/154 50/50/155 49/49/156 
f 59/59/157 60/60/158 52/52/159 50/50/160 
f 60/60/161 61/61/162 54/54/163 52/52/164 
f 61/61/165 62/62/166 56/56/167 54/54/168 
f 48/48/169 51/51/170 44/44/171 43/43/172 
f 51/51/173 53/53/174 45/45/175 44/44/176 
f 53/53/177 55/55/178 46/46/179 45/45/180 
f 46/46/181 55/55/182 57/57/183 47/47/184 
s off
f 4/64/185 59/59/186 58/58/187 1/63/188 
f 6/65/189 60/60/190 59/59/191 4/64/192 
f 6/65/193 8/66/194 61/61/195 60/60/196 
f 8/66/197 10/67/198 62/62/199 61/61/200 
s 1
f 63/4/201 64/3/202 2/2/203 1/1/204 
f 65/6/205 66/5/206 64/3/207 63/4/208 
f 67/8/209 68/7/210 66/5/211 65/6/212 
f 10/10/213 9/9/214 68/7/215 67/8/216 
f 64/3/217 69/12/218 11/11/219 2/2/220 
f 66/5/221 70/13/222 69/12/223 64/3/224 
f 68/7/225 71/14/226 70/13/227 66/5/228 
f 9/9/229 15/15/230 71/14/231 68/7/232 
f 69/12/233 72/17/234 16/16/235 11/11/236 
f 70/13/237 73/18/238 72/17/239 69/12/240 
f 71/14/241 74/19/242 73/18/243 70/13/244 
f 15/15/245 20/20/246 74/19/247 71/14/248 
f 72/17/249 75/22/250 21/21/251 16/16/252 
f 73/18/253 76/23/254 75/22/255 72/17/256 
f 74/19/257 77/24/258 76/23/259 73/18/260 
f 20/20/261 25/25/262 77/24/263 74/19/264 
f 26/26/265 28/28/266 78/27/267 
f 26/26/268 78/27/269 79/29/270 
f 26/26/271 79/29/272 80/30/273 
f 26/26/274 80/30/275 31/31/276 
f 33/33/277 21/21/278 75/22/279 81/32/280 
f 81/32/281 75/22/282 76/23/283 82/34/284 
f 82/34/285 76/23/286 77/24/287 83/35/288 
f 83/35/289 77/24/290 25/25/291 36/36/292 
s off
f 38/38/293 84/37/294 83/35/295 36/36/296 
f 84/37/297 85/39/298 82/34/299 83/35/300 
f 85/39/301 86/40/302 81/32/303 82/34/304 
f 86/40/305 41/41/306 33/33/307 81/32/308 
f 38/38/309 31/31/310 80/30/311 84/37/312 
f 84/37/313 80/30/314 79/29/315 85/39/316 
f 85/39/317 79/29/318 78/27/319 86/40/320 
f 86/40/321 78/27/322 28/28/323 41/41/324 
s 1
f 42/42/325 87/44/326 43/43/327 
f 42/42/328 88/45/329 87/44/330 
f 42/42/331 89/46/332 88/45/333 
f 42/42/334 47/47/335 89/46/336 
f 90/51/337 91/50/338 49/49/339 48/48/340 
f 92/53/341 93/52/342 91/50/343 90/51/344 
f 94/55/345 95/54/346 93/52/347 92/53/348 
f 57/57/349 56/56/350 95/54/351 94/55/352 
f 91/50/353 96/59/354 58/58/355 49/49/356 
f 93/52/357 97/60/358 96/59/359 91/50/360 
f 95/54/361 98/61/362 97/60/363 93/52/364 
f 56/56/365 62/62/366 98/61/367 95/54/368 
f 87/44/369 90/51/370 48/48/371 43/43/372 
f 88/45/373 92/53/374 90/51/375 87/44/376 
f 89/46/377 94/55/378 92/53/379 88/45/380 
f 89/46/381 47/47/382 57/57/383 94/55/384 
s off
f 58/58/385 96/59/386 63/64/387 1/63/388 
f 96/59/389 97/60/390 65/65/391 63/64/392 
f 65/65/393 97/60/394 98/61/395 67/66/396 
f 67/66/397 98/61/398 62/62/399 10/67/400 
# 88 polygons - 16 triangles

